<?xml version="1.0" encoding="UTF-8"?><svg xmlns="http://www.w3.org/2000/svg" xmlns:xlink="http://www.w3.org/1999/xlink" fill-opacity="1" color-rendering="auto" color-interpolation="auto" text-rendering="auto" stroke="black" stroke-linecap="square" width="339" stroke-miterlimit="10" shape-rendering="auto" stroke-opacity="1" fill="black" stroke-dasharray="none" font-weight="normal" stroke-width="1" height="470" font-family="'Dialog'" font-style="normal" stroke-linejoin="miter" font-size="12px" stroke-dashoffset="0" image-rendering="auto">
  <!--Generated by ySVG 2.5-->
  <defs id="genericDefs"/>
  <g>
    <defs id="defs1">
      <clipPath clipPathUnits="userSpaceOnUse" id="clipPath1">
        <path d="M0 0 L339 0 L339 470 L0 470 L0 0 Z"/>
      </clipPath>
      <clipPath clipPathUnits="userSpaceOnUse" id="clipPath2">
        <path d="M221 253 L560 253 L560 723 L221 723 L221 253 Z"/>
      </clipPath>
    </defs>
    <g fill="white" text-rendering="geometricPrecision" shape-rendering="geometricPrecision" transform="translate(-221,-253)" stroke="white">
      <rect x="221" width="339" height="470" y="253" clip-path="url(#clipPath2)" stroke="none"/>
    </g>
    <g fill="rgb(255,204,0)" text-rendering="geometricPrecision" shape-rendering="geometricPrecision" transform="matrix(1,0,0,1,-221,-253)" stroke="rgb(255,204,0)">
      <rect x="236" width="309" height="64" y="644" clip-path="url(#clipPath2)" stroke="none"/>
    </g>
    <g text-rendering="geometricPrecision" stroke-miterlimit="1.45" shape-rendering="geometricPrecision" transform="matrix(1,0,0,1,-221,-253)" stroke-linecap="butt">
      <rect fill="none" x="236" width="309" height="64" y="644" clip-path="url(#clipPath2)"/>
      <text x="350.5801" xml:space="preserve" y="680.5352" clip-path="url(#clipPath2)" font-family="sans-serif" stroke="none">python image</text>
    </g>
    <g fill="rgb(255,204,0)" text-rendering="geometricPrecision" shape-rendering="geometricPrecision" transform="matrix(1,0,0,1,-221,-253)" stroke="rgb(255,204,0)">
      <rect x="236" width="309" height="64" y="550" clip-path="url(#clipPath2)" stroke="none"/>
    </g>
    <g text-rendering="geometricPrecision" stroke-miterlimit="1.45" shape-rendering="geometricPrecision" transform="matrix(1,0,0,1,-221,-253)" stroke-linecap="butt">
      <rect fill="none" x="236" width="309" height="64" y="550" clip-path="url(#clipPath2)"/>
      <text x="377.3721" xml:space="preserve" y="586.5352" clip-path="url(#clipPath2)" font-family="sans-serif" stroke="none">ADD</text>
    </g>
    <g fill="rgb(255,204,0)" text-rendering="geometricPrecision" shape-rendering="geometricPrecision" transform="matrix(1,0,0,1,-221,-253)" stroke="rgb(255,204,0)">
      <rect x="236" width="309" height="64" y="456" clip-path="url(#clipPath2)" stroke="none"/>
    </g>
    <g text-rendering="geometricPrecision" stroke-miterlimit="1.45" shape-rendering="geometricPrecision" transform="matrix(1,0,0,1,-221,-253)" stroke-linecap="butt">
      <rect fill="none" x="236" width="309" height="64" y="456" clip-path="url(#clipPath2)"/>
      <text x="343.9707" xml:space="preserve" y="492.5352" clip-path="url(#clipPath2)" font-family="sans-serif" stroke="none">RUN: apt-install</text>
    </g>
    <g fill="rgb(255,204,0)" text-rendering="geometricPrecision" shape-rendering="geometricPrecision" transform="matrix(1,0,0,1,-221,-253)" stroke="rgb(255,204,0)">
      <rect x="236" width="309" height="64" y="362" clip-path="url(#clipPath2)" stroke="none"/>
    </g>
    <g text-rendering="geometricPrecision" stroke-miterlimit="1.45" shape-rendering="geometricPrecision" transform="matrix(1,0,0,1,-221,-253)" stroke-linecap="butt">
      <rect fill="none" x="236" width="309" height="64" y="362" clip-path="url(#clipPath2)"/>
      <text x="347.4893" xml:space="preserve" y="398.5352" clip-path="url(#clipPath2)" font-family="sans-serif" stroke="none">RUN pip install</text>
    </g>
    <g fill="rgb(255,204,0)" text-rendering="geometricPrecision" shape-rendering="geometricPrecision" transform="matrix(1,0,0,1,-221,-253)" stroke="rgb(255,204,0)">
      <rect x="236" width="309" height="64" y="268" clip-path="url(#clipPath2)" stroke="none"/>
    </g>
    <g text-rendering="geometricPrecision" stroke-miterlimit="1.45" shape-rendering="geometricPrecision" transform="matrix(1,0,0,1,-221,-253)" stroke-linecap="butt">
      <rect fill="none" x="236" width="309" height="64" y="268" clip-path="url(#clipPath2)"/>
      <text x="379.7275" xml:space="preserve" y="304.5352" clip-path="url(#clipPath2)" font-family="sans-serif" stroke="none">APP</text>
    </g>
  </g>
</svg>
